<svg xmlns="http://www.w3.org/2000/svg" enable-background="new 0 0 175.012 334.45" viewBox="0 0 175.012 334.45"><polygon points="157.797 206.679 164.31 205.255 160.066 185.849 153.887 188.801"/><path d="M153.497 264.097c-.581-1.501-1.447-2.875-2.55-4.048l-31.957-33.974c-1.681 11.537-3.921 21.492-6.268 29.825l18.345 19.503 19.786 51.061c1.919 4.953 6.647 7.987 11.658 7.986 1.502 0 3.029-.272 4.514-.848 6.438-2.494 9.634-9.734 7.139-16.172L153.497 264.097zM103.259 99.568c-11.456 0-20.906 8.564-22.313 19.639 12.731-9.41 27.346-14.102 34.582-15.996C111.998 100.91 107.787 99.568 103.259 99.568zM103.259 144.568c12.428 0 22.5-10.073 22.5-22.5 0-5.683-2.111-10.869-5.585-14.829-4.183.922-24.086 5.818-39.156 18.253C82.667 136.294 91.997 144.568 103.259 144.568zM119.029 126.825c0 0-6.287 19.564-21.908 5.93C97.121 132.755 111.214 133.455 119.029 126.825z"/><rect width="27.038" height="1.714" x="40.137" y="176.114"/><rect width="27.038" height="1.714" x="34.504" y="186.399"/><rect width="38.797" height="1.714" x="17.675" y="181.257"/><path d="M82.463,215.353c-0.082,2.221-0.258,4.415-0.546,6.564c0,0.001,0,0.001,0,0.002c-0.037,0.619-0.06,1.205-0.077,1.774
		c-0.004,0.122-0.008,0.244-0.01,0.363c-0.013,0.549-0.018,1.078-0.012,1.582c0.001,0.074,0.004,0.145,0.005,0.218
		c0.008,0.464,0.025,0.908,0.049,1.334c0.004,0.07,0.007,0.142,0.011,0.211c0.029,0.458,0.07,0.892,0.119,1.306
		c0.009,0.071,0.018,0.14,0.027,0.209c0.108,0.84,0.258,1.593,0.449,2.266c0.014,0.049,0.028,0.099,0.042,0.147
		c0.1,0.334,0.208,0.652,0.329,0.948c0.003,0.008,0.007,0.016,0.011,0.024c0.123,0.297,0.257,0.573,0.401,0.833
		c0.01,0.019,0.021,0.039,0.031,0.058c0.147,0.26,0.306,0.503,0.476,0.728c0.013,0.017,0.026,0.033,0.039,0.05
		c0.348,0.453,0.741,0.838,1.181,1.164c0.014,0.01,0.028,0.021,0.042,0.031c1.142,0.831,2.589,1.277,4.345,1.518
		c-2.869,13.322-6.351,23.115-8.899,29.208l-41.223-6.938c-6.812-1.154-13.256,3.443-14.401,10.251
		c-1.146,6.809,3.443,13.256,10.251,14.401l50.5,8.5c0.695,0.117,1.39,0.175,2.078,0.175c4.344,0,8.441-2.27,10.723-6.082
		c0.569-0.95,13.767-23.422,19.045-65.827c0.036-0.159,0.07-0.322,0.104-0.484c0.041-0.184,0.083-0.365,0.12-0.556
		c0.411-3.527,0.707-6.807,0.908-9.941c0.116-1.8,0.208-3.565,0.252-5.269c0.014-0.531,0.011-1.045,0.018-1.569
		c-1.561-0.472-2.997-1.313-4.196-2.481l-26.667-26.001c-4.065-3.965-4.148-10.499-0.186-14.565
		c1.957-2.006,4.577-3.109,7.378-3.109c2.701,0,5.254,1.038,7.188,2.925l15.422,15.037l1.948,0.887
		c1.062,0.483,2.191,0.72,3.314,0.72c1.845,0,3.67-0.638,5.138-1.867l19.002-15.917l2.176,9.948l1.869-0.893
		c1.402-0.669,2.895-1.007,4.436-1.007c0.036,0,0.071,0.007,0.106,0.008l-2.818-12.887l1.396-1.169
		c3.388-2.837,3.833-7.883,0.996-11.27c-1.489-1.778-3.587-2.737-5.735-2.845l-10.089-46.134l-6.513,1.424l10.319,47.185
		l-21.554,18.053L97.45,147.518c-0.67-0.305-1.36-0.502-2.053-0.613c-1.57-0.433-3.137-0.67-4.655-0.718
		c-1.642-0.052-3.229,0.109-4.7,0.475c-0.056,0.014-0.109,0.033-0.164,0.048c-0.219,0.058-0.438,0.12-0.65,0.191
		c-0.055,0.019-0.107,0.041-0.162,0.06c-0.218,0.077-0.433,0.157-0.644,0.247c-0.025,0.011-0.05,0.024-0.076,0.035
		c-0.239,0.104-0.473,0.215-0.703,0.335c-0.004,0.002-0.008,0.005-0.013,0.007c-0.246,0.129-0.486,0.268-0.721,0.414
		c-0.001,0.001-0.003,0.002-0.004,0.003v0c-6.275,3.917-8.772,14.02-6.284,22.653c2.117,10.816,5.495,25.262,5.86,39.203
		C82.529,211.701,82.53,213.537,82.463,215.353z"/><path d="M152.226 169.312l-28.796 13.76-22.67-22.104c-3.163-3.084-8.228-3.02-11.313.144-3.084 3.164-3.02 8.229.144 11.313l26.667 26c1.528 1.489 3.543 2.271 5.587 2.271 1.169 0 2.347-.256 3.447-.781l33.833-16.166c3.986-1.905 5.674-6.682 3.77-10.668C160.989 169.095 156.217 167.41 152.226 169.312zM171.422 45c0-24.853-20.147-45-45-45-24.853 0-45 20.147-45 45 0 24.853 20.147 45 45 45C151.274 90 171.422 69.853 171.422 45zM100.046 47.004l29.825-6.523-2.459-11.245 25.387 10.966-18.492 20.562-2.459-11.245-29.825 6.523L100.046 47.004zM7.211 75.358l1.346.083-.6 3.315c-.561.269-1.43.477-2.238.477-2.072 0-3.066-1.348-3.066-3.585 0-3.958 1.637-6.673 5.283-6.673.58 0 1.285.083 1.68.187.311.104.33.229.268.58l-.268 1.472 2.029-.146.58-3.294c-.85-.477-2.506-.829-4.145-.829C3.875 66.945 0 69.39 0 75.627c0 3.626 1.947 5.595 5.449 5.595 1.555 0 3.42-.353 4.684-1.161l.725-4.103c.063-.414.145-.518.539-.58l.662-.083.27-1.554H7.48L7.211 75.358zM22.961 74.073c0-3.253-2.363-3.813-3.793-3.813-4.082 0-5.801 3.336-5.801 7.087 0 2.59 1.346 3.916 3.813 3.916C21.324 81.263 22.961 77.803 22.961 74.073zM17.49 79.398c-1.264 0-1.617-.87-1.617-2.093 0-1.886.518-5.222 2.963-5.222 1.162 0 1.617.787 1.617 2.113C20.453 76 19.893 79.398 17.49 79.398zM24.309 83.19c0 1.492 1.037 2.528 3.109 2.528 2.963 0 4.537-1.616 5.221-4.849l.414-2.176 1.348-7.688c-1.078-.497-2.59-.746-3.834-.746-3.48 0-6.01 2.424-6.01 6.051 0 2.32 1.389 3.295 2.902 3.46C25.801 80.434 24.309 81.305 24.309 83.19zM27.002 76.311c0-1.969.893-4.207 3.295-4.207.477 0 .975.063 1.41.229l-.684 3.999c-.25 1.472-1.162 2.155-2.26 2.155C27.355 78.487 27.002 77.534 27.002 76.311zM28.744 80.62c.91-.435 1.283-.725 1.76-1.223l-.207 1.182c-.332 1.761-.869 3.315-2.465 3.315-.809 0-1.244-.373-1.244-1.119C26.588 81.657 27.563 81.18 28.744 80.62zM35.666 77.347c0 2.59 1.346 3.916 3.813 3.916 4.145 0 5.781-3.46 5.781-7.19 0-3.253-2.363-3.813-3.793-3.813C37.385 70.26 35.666 73.596 35.666 77.347zM41.135 72.083c1.162 0 1.617.787 1.617 2.113 0 1.804-.561 5.201-2.963 5.201-1.264 0-1.617-.87-1.617-2.093C38.172 75.419 38.689 72.083 41.135 72.083zM49.756 79.771c-1.656.663-3.148 1.534-3.148 3.419 0 1.492 1.035 2.528 3.107 2.528 2.963 0 4.537-1.616 5.223-4.849l.414-2.176 1.346-7.688c-1.076-.497-2.59-.746-3.832-.746-3.482 0-6.01 2.424-6.01 6.051C46.855 78.631 48.244 79.606 49.756 79.771zM52.596 80.579c-.332 1.761-.871 3.315-2.467 3.315-.809 0-1.242-.373-1.242-1.119 0-1.119.973-1.596 2.154-2.155.912-.435 1.285-.725 1.762-1.223L52.596 80.579zM52.596 72.104c.477 0 .973.063 1.408.229l-.684 3.999c-.248 1.472-1.16 2.155-2.258 2.155-1.41 0-1.762-.953-1.762-2.176C49.301 74.342 50.191 72.104 52.596 72.104zM57.965 77.347c0 2.59 1.346 3.916 3.813 3.916 4.145 0 5.781-3.46 5.781-7.19 0-3.253-2.363-3.813-3.793-3.813C59.684 70.26 57.965 73.596 57.965 77.347zM63.434 72.083c1.162 0 1.617.787 1.617 2.113 0 1.804-.561 5.201-2.963 5.201-1.264 0-1.617-.87-1.617-2.093C60.471 75.419 60.988 72.083 63.434 72.083zM71.123 79.523c0-.685-.455-1.14-1.285-1.14-1.016 0-1.74.704-1.74 1.678 0 .726.436 1.182 1.285 1.182C70.439 81.243 71.123 80.455 71.123 79.523zM74.625 78.383c-1.016 0-1.74.704-1.74 1.678 0 .726.436 1.182 1.285 1.182 1.057 0 1.74-.787 1.74-1.72C75.91 78.838 75.455 78.383 74.625 78.383zM77.672 80.061c0 .726.436 1.182 1.285 1.182 1.057 0 1.74-.787 1.74-1.72 0-.685-.455-1.14-1.285-1.14C78.396 78.383 77.672 79.087 77.672 80.061zM69.425 110.223c-.152-.069-15.236-7.046-15.079-19.993l-2-.023c-.173 14.239 15.584 21.535 16.255 21.839L69.425 110.223z"/></svg>